<svg width="35" height="36" fill="none" xmlns="http://www.w3.org/2000/svg"><path d="M11.2 2.232c-5.019 0-9.1 4.081-9.1 9.1v12.6c0 5.019 4.081 9.1 9.1 9.1h12.6c5.02 0 9.1-4.081 9.1-9.1v-12.6c0-5.019-4.08-9.1-9.1-9.1H11.2zm14.7 5.6c.77 0 1.4.63 1.4 1.4 0 .77-.63 1.4-1.4 1.4-.77 0-1.4-.63-1.4-1.4 0-.77.63-1.4 1.4-1.4zm-8.4 2.1c4.25 0 7.7 3.451 7.7 7.7 0 4.249-3.45 7.7-7.7 7.7a7.705 7.705 0 01-7.7-7.7c0-4.249 3.451-7.7 7.7-7.7zm0 1.4a6.31 6.31 0 00-6.3 6.3 6.31 6.31 0 006.3 6.3 6.31 6.31 0 006.3-6.3 6.31 6.31 0 00-6.3-6.3z" fill="#F26C62"/></svg>