<svg width="35" height="36" fill="none" xmlns="http://www.w3.org/2000/svg"><path d="M17.5 1.532c-8.878 0-16.1 7.222-16.1 16.1s7.222 16.1 16.1 16.1 16.1-7.222 16.1-16.1-7.222-16.1-16.1-16.1zm7.866 12.967c.007.165.011.333.011.502 0 5.122-3.901 11.031-11.033 11.031A10.97 10.97 0 018.4 24.29c.303.036.61.054.925.054 1.817 0 3.49-.62 4.815-1.66a3.885 3.885 0 01-3.623-2.692 3.867 3.867 0 001.752-.067 3.88 3.88 0 01-3.109-3.802v-.05c.523.291 1.12.466 1.756.487a3.875 3.875 0 01-1.724-3.228c0-.71.19-1.376.524-1.95a11.015 11.015 0 007.993 4.051 3.878 3.878 0 016.606-3.536 7.773 7.773 0 002.462-.94 3.889 3.889 0 01-1.706 2.145 7.798 7.798 0 002.228-.611 7.884 7.884 0 01-1.933 2.008z" fill="#F26C62"/></svg>