<svg width="88" height="75" fill="none" xmlns="http://www.w3.org/2000/svg"><g clip-path="url(#clip0_193_1060)"><path d="M5.429 12c-2.884 0-5.26 2.033-5.26 4.5v36c0 2.467 2.376 4.5 5.26 4.5h7.177c.836 4.254 5.157 7.5 10.355 7.5s9.52-3.246 10.355-7.5H49.59c1.273 0 2.404-.475 3.287-1.172.904.691 2.061 1.172 3.397 1.172h1.917c.836 4.254 5.157 7.5 10.356 7.5 5.787 0 10.519-4.049 10.519-9s-4.732-9-10.52-9c-5.198 0-9.519 3.246-10.355 7.5h-1.917c-.295 0-.767-.188-1.15-.516-.384-.328-.603-.732-.603-.984V24c0-.252.219-.656.602-.984.384-.328.856-.516 1.15-.516H70.3c1.445 0 3.458 1.389 4.712 2.719l.219.281h-8.438c-2.808 0-5.26 1.94-5.26 4.5v6c0 1.248.658 2.344 1.59 3.14a5.655 5.655 0 003.67 1.36h17.533v12c0 .252-.22.656-.603.984-.383.328-.856.516-1.15.516h-3.507v3h3.507a5.653 5.653 0 003.67-1.36c.932-.796 1.59-1.892 1.59-3.14V38.11c0-1.688-.754-3.235-1.425-4.407a15.838 15.838 0 00-1.37-2.016v-.046l-7.177-8.25h-.055v-.047C76.25 21.68 73.757 19.5 70.299 19.5H56.273c-.63 0-1.206.1-1.753.281V16.5c0-2.467-2.377-4.5-5.26-4.5H5.429zm0 3h43.83c.973 0 1.754.668 1.754 1.5v36.281c0 .697-.61 1.219-1.424 1.219H33.316c-.835-4.254-5.157-7.5-10.355-7.5s-9.52 3.246-10.355 7.5H5.429c-.973 0-1.754-.668-1.754-1.5v-36c0-.832.781-1.5 1.754-1.5zm61.363 13.5H77.86l4.328 4.922.055.047c.034.04.507.615 1.04 1.547.446.773.679 1.693.823 2.484H66.792c-.294 0-.767-.188-1.15-.516-.384-.328-.603-.732-.603-.984v-6c0-.738 1.055-1.5 1.753-1.5zM8.935 30v8.719h2.301v-3.61H15.4v-1.5h-4.164v-1.968h4.712V30H8.935zm8.766 0v8.39h1.918v-3.28h2.301c1.575 0 1.575 1.042 1.753 2.39 0 .299-.013.592.165.89h2.3c-.348-.298-.383-1.347-.383-1.5 0-2.097-1.02-2.39-1.37-2.39a2.162 2.162 0 001.535-2.11c0-1.95-2.082-2.39-2.959-2.39h-5.26zm10.52 0v8.719h7.56V37.03h-5.478v-2.06h4.93v-1.5h-4.93v-1.83h5.26V30H28.22zm9.972 0v8.719h7.56V37.03H40.33v-2.06h4.877v-1.5H40.33v-1.83h5.26V30h-7.396zm-18.41 1.5h2.466c.527 0 1.589.17 1.589 1.219 0 1.2-1.062 1.172-1.59 1.172h-2.465V31.5zm3.178 18c3.897 0 7.013 2.666 7.013 6s-3.116 6-7.013 6-7.013-2.666-7.013-6 3.116-6 7.013-6zm45.585 0c3.896 0 7.013 2.666 7.013 6s-3.117 6-7.013 6c-3.897 0-7.013-2.666-7.013-6s3.116-6 7.013-6z" fill="#E87B16"/></g><defs><clipPath id="clip0_193_1060"><path fill="#fff" transform="translate(.169)" d="M0 0h87.662v75H0z"/></clipPath></defs></svg>