<svg width="76" height="75" fill="none" xmlns="http://www.w3.org/2000/svg"><path d="M12.36 2.953a1.75 1.75 0 00-.188.047A1.503 1.503 0 0011 4.5V18h13.5a1.509 1.509 0 001.318-.744c.27-.469.27-1.043 0-1.512A1.509 1.509 0 0024.5 15h-8.531C21.652 9.44 29.416 6 38 6c17.414 0 31.5 14.086 31.5 31.5S55.414 69 38 69 6.5 54.914 6.5 37.5a31.384 31.384 0 013.516-14.438l-2.672-1.359A34.294 34.294 0 003.5 37.5C3.5 56.537 18.963 72 38 72s34.5-15.463 34.5-34.5S57.037 3 38 3c-9.34 0-17.79 3.756-24 9.797V4.5a1.5 1.5 0 00-1.64-1.547zM38 7.5c-.826 0-1.5.674-1.5 1.5s.674 1.5 1.5 1.5 1.5-.674 1.5-1.5-.674-1.5-1.5-1.5zm14.25 3.797c-.826 0-1.5.674-1.5 1.5s.674 1.5 1.5 1.5 1.5-.674 1.5-1.5-.674-1.5-1.5-1.5zM62.703 21.75c-.826 0-1.5.674-1.5 1.5s.674 1.5 1.5 1.5 1.5-.674 1.5-1.5-.674-1.5-1.5-1.5zm-34.64 3.61c-4.16 0-7.125 2.712-7.125 6.609v.047h3.093v-.047c0-2.256 1.559-3.75 3.89-3.75 2.18 0 3.845 1.441 3.845 3.375 0 1.552-.686 2.677-3.516 5.625l-7.125 7.406v2.39h14.25v-2.953h-9.703v-.234l4.734-4.781C33.951 35.46 35 33.645 35 31.407c0-3.487-2.924-6.048-6.938-6.048zm19.828.515c-3.768 5.642-6.92 10.559-8.813 14.016v3.046h10.313v4.079h3.14v-4.079h2.953v-2.953h-2.953v-14.11h-4.64zm1.359 2.906h.188v11.297h-7.22v-.234c2.491-4.325 4.94-8.034 7.032-11.063zM9.5 36c-.826 0-1.5.674-1.5 1.5S8.674 39 9.5 39s1.5-.674 1.5-1.5-.674-1.5-1.5-1.5zm57 0c-.826 0-1.5.674-1.5 1.5s.674 1.5 1.5 1.5 1.5-.674 1.5-1.5-.674-1.5-1.5-1.5zM13.297 50.25c-.826 0-1.5.674-1.5 1.5s.674 1.5 1.5 1.5 1.5-.674 1.5-1.5-.674-1.5-1.5-1.5zm49.406 0c-.826 0-1.5.674-1.5 1.5s.674 1.5 1.5 1.5 1.5-.674 1.5-1.5-.674-1.5-1.5-1.5zM23.75 60.703c-.826 0-1.5.674-1.5 1.5s.674 1.5 1.5 1.5 1.5-.674 1.5-1.5-.674-1.5-1.5-1.5zm28.5 0c-.826 0-1.5.674-1.5 1.5s.674 1.5 1.5 1.5 1.5-.674 1.5-1.5-.674-1.5-1.5-1.5zM38 64.5c-.826 0-1.5.674-1.5 1.5s.674 1.5 1.5 1.5 1.5-.674 1.5-1.5-.674-1.5-1.5-1.5z" fill="#12AEE0"/></svg>