<svg width="28" height="29" fill="none" xmlns="http://www.w3.org/2000/svg"><g clip-path="url(#clip0_2202_32)"><path fill-rule="evenodd" clip-rule="evenodd" d="M2.5 4.793c0-.714.579-1.293 1.293-1.293h2.78a3.017 3.017 0 012.986 2.586h16.648a1.293 1.293 0 011.29 1.392l-.618 8.024a4.741 4.741 0 01-4.727 4.377h-10.95l.16 1.344a.43.43 0 00.428.38h10.969a1.293 1.293 0 010 2.587h-10.97a3.017 3.017 0 01-2.995-2.66L7 6.465a.431.431 0 00-.428-.38H3.793A1.293 1.293 0 012.5 4.793zm8.394 12.5h11.258a2.155 2.155 0 002.148-1.99l.51-6.63H9.869l1.026 8.62zm4.537 10.345a1.724 1.724 0 11-3.448 0 1.724 1.724 0 013.448 0zm8.62 0a1.724 1.724 0 11-3.447 0 1.724 1.724 0 013.448 0z" fill="#4A4A4A"/></g><defs><clipPath id="clip0_2202_32"><path fill="#fff" transform="translate(0 .5)" d="M0 0h28v28H0z"/></clipPath></defs></svg>