<svg width="76" height="75" fill="none" xmlns="http://www.w3.org/2000/svg"><g clip-path="url(#clip0_193_1066)"><path d="M38 4.5c-9.095 0-16.5 7.405-16.5 16.5 0 9.095 7.405 16.5 16.5 16.5 9.095 0 16.5-7.405 16.5-16.5 0-9.095-7.405-16.5-16.5-16.5zm0 3c7.474 0 13.5 6.026 13.5 13.5S45.474 34.5 38 34.5 24.5 28.474 24.5 21 30.526 7.5 38 7.5zm-1.5 3v2.654c-3.972.666-4.099 4.196-4.099 4.615 0 3.714 3.007 4.384 5.423 4.924 2.17.486 3.396.833 3.396 2.291 0 .875-.418 2.344-3.217 2.344-.062 0-1.517-.01-2.429-.923-.538-.538-.799-1.317-.773-2.311l.003-.094h-2.786l.003.097c.09 3.15 1.563 4.95 4.482 5.505V31.5H39.5v-1.852c4.27-.693 4.5-4.002 4.5-4.684.002-3.587-3.005-4.276-5.42-4.831-2.169-.498-3.395-.848-3.395-2.22 0-1.643.908-2.41 2.86-2.41 2.123 0 2.682 1.308 2.759 2.497h2.783c.002-1.164-.471-2.416-1.304-3.328-.729-.797-1.686-1.31-2.786-1.515V10.5H36.5zm-15.803 27c-4.255 0-6.187 1.03-8.317 1.872h-.003c-4.06 1.609-11.027 4.96-11.027 4.96a1.503 1.503 0 101.3 2.707s7.01-3.363 10.832-4.878c2.34-.925 3.398-1.661 7.215-1.661 8.425 0 8.198 3.782 11.649 5.853h.003c1.238.743 3.154 1.351 5.344 1.908a1.5 1.5 0 00.74.19h.004c2.462.596 5.067 1.049 7.063 1.049 1.753 0 2.992.336 3.65.75.66.414.85.755.85 1.5 0 .873-.2 1.171-.858 1.562-.658.39-1.916.688-3.642.688h-8.7c-3.673 0-8.886-1.441-8.886-1.441a1.5 1.5 0 10-.826 2.882S32.384 57 36.799 57H45.5c2.03 0 3.77-.274 5.174-1.107a4.63 4.63 0 001.116-.944 1.5 1.5 0 00.32-.167L65.6 45.71c2.34-1.388 3.953-1.782 4.914-1.764.96.019 1.325.323 1.632.724.444.582.48.89.19 1.576s-1.116 1.675-2.563 2.701c-1.801 1.278-21.621 14.443-23.95 15.791-1.724 1-3.114 2.063-4.703 2.514-1.588.45-3.467.446-6.539-1.049h-.003c-2.052-1-10.719-5.526-13.532-6.978-1.555-.804-2.865-1.248-4.204-1.172-1.34.075-2.473.66-3.665 1.42a1.207 1.207 0 00-.012.01l-4.046 2.64a1.5 1.5 0 101.638 2.513l4.049-2.64c1.033-.658 1.645-.915 2.206-.946.565-.032 1.318.149 2.657.84 2.787 1.44 11.342 5.91 13.597 7.008 3.542 1.725 6.391 1.888 8.675 1.24 2.283-.649 3.911-1.95 5.384-2.804 3.125-1.808 21.924-14.338 24.182-15.94v.002c1.72-1.22 2.964-2.496 3.592-3.984.627-1.488.425-3.26-.572-4.564-.783-1.024-2.183-1.868-3.957-1.902-1.255-.024-2.757.45-4.41 1.193-.062-.3.084-.631-.05-.92-.51-1.107-1.646-1.886-2.923-2.139h-.003c-1.676-.331-3.574.185-5.452 1.049-.134-.407-.236-.834-.507-1.157-.805-.959-1.962-1.3-3.038-1.383-2.154-.167-4.393.536-6.012 1.5-2.247 1.337-8.961 5.587-9.938 6.205-2.005-.54-3.812-1.194-4.347-1.515v.003c-1.373-.824-3.735-6.281-13.193-6.281zm33.258 3.08c.6.046.886.219.97.318.064.076.163.217.117.66l-7.406 5.106A14.45 14.45 0 0045.5 46.5c-.794 0-1.88-.12-3.064-.308 2.61-1.646 5.844-3.68 7.271-4.529 1.006-.599 3.05-1.177 4.248-1.084zm7.65 1.417c.396-.037.739-.028.999.023.623.124.683.24.782.455.073.16.096.561.044 1.078L52.862 50.66a4.836 4.836 0 00-1.796-2.719l6.191-4.265c.053-.036.104-.075.152-.117 1.428-.957 3.043-1.456 4.196-1.562z" fill="#06C825"/></g><defs><clipPath id="clip0_193_1066"><path fill="#fff" transform="translate(.5)" d="M0 0h75v75H0z"/></clipPath></defs></svg>