<svg width="35" height="36" viewBox="0 0 35 36" fill="none" xmlns="http://www.w3.org/2000/svg">
<path d="M17.4999 1.53195C8.6218 1.53195 1.3999 8.75385 1.3999 17.632C1.3999 26.5101 8.6218 33.732 17.4999 33.732C26.378 33.732 33.5999 26.5101 33.5999 17.632C33.5999 8.75385 26.378 1.53195 17.4999 1.53195ZM25.3658 14.4988C25.3728 14.664 25.377 14.832 25.377 15.0007C25.377 20.1233 21.4759 26.032 14.3436 26.032C12.154 26.032 10.1149 25.3901 8.3999 24.2897C8.703 24.3261 9.0103 24.3436 9.3246 24.3436C11.1418 24.3436 12.8141 23.7248 14.1399 22.6846C12.4431 22.6538 11.0123 21.5303 10.5174 19.9917C10.7547 20.0372 10.9976 20.0617 11.2482 20.0617C11.6017 20.0617 11.9447 20.0148 12.2688 19.9252C10.4964 19.5675 9.1601 18.0023 9.1601 16.1228C9.1601 16.106 9.1601 16.0899 9.1601 16.0738C9.683 16.3643 10.2801 16.5393 10.9164 16.5596C9.8748 15.8631 9.1916 14.6773 9.1916 13.3319C9.1916 12.6214 9.382 11.9557 9.7159 11.3817C11.629 13.7274 14.4864 15.2709 17.7085 15.4333C17.642 15.1491 17.607 14.8537 17.607 14.5499C17.607 12.4086 19.343 10.6726 21.485 10.6726C22.6001 10.6726 23.6074 11.143 24.3144 11.8969C25.1971 11.7233 26.028 11.4006 26.777 10.9568C26.4879 11.8612 25.8726 12.6214 25.0711 13.1016C25.8565 13.0064 26.6027 12.7992 27.2992 12.4905C26.7798 13.2682 26.1225 13.9521 25.3658 14.4988Z" fill="#F26C62"/>
</svg>
