<svg width="13" height="13" viewBox="0 0 13 13" fill="none" xmlns="http://www.w3.org/2000/svg">
<path d="M11.75 5.75H7.25V1.25C7.25 1.05109 7.17098 0.860322 7.03033 0.71967C6.88968 0.579018 6.69891 0.5 6.5 0.5C6.30109 0.5 6.11032 0.579018 5.96967 0.71967C5.82902 0.860322 5.75 1.05109 5.75 1.25V5.75H1.25C1.05109 5.75 0.860322 5.82902 0.71967 5.96967C0.579018 6.11032 0.5 6.30109 0.5 6.5C0.5 6.69891 0.579018 6.88968 0.71967 7.03033C0.860322 7.17098 1.05109 7.25 1.25 7.25H5.75V11.75C5.75 11.9489 5.82902 12.1397 5.96967 12.2803C6.11032 12.421 6.30109 12.5 6.5 12.5C6.69891 12.5 6.88968 12.421 7.03033 12.2803C7.17098 12.1397 7.25 11.9489 7.25 11.75V7.25H11.75C11.9489 7.25 12.1397 7.17098 12.2803 7.03033C12.421 6.88968 12.5 6.69891 12.5 6.5C12.5 6.30109 12.421 6.11032 12.2803 5.96967C12.1397 5.82902 11.9489 5.75 11.75 5.75Z" fill="#5C5F62"/>
</svg>
