<svg width="88" height="75" viewBox="0 0 88 75" fill="none" xmlns="http://www.w3.org/2000/svg">
<g clip-path="url(#clip0_193_1060)">
<path d="M5.42869 12C2.54542 12 0.168945 14.0332 0.168945 16.5V52.5C0.168945 54.9668 2.54542 57 5.42869 57H12.606C13.4416 61.2539 17.7631 64.5 22.9612 64.5C28.1593 64.5 32.4807 61.2539 33.3163 57H49.5886C50.8624 57 51.9925 56.5254 52.8759 55.8281C53.7799 56.5195 54.9374 57 56.2728 57H58.1905C59.026 61.2539 63.3475 64.5 68.5456 64.5C74.3327 64.5 79.065 60.4512 79.065 55.5C79.065 50.5488 74.3327 46.5 68.5456 46.5C63.3475 46.5 59.026 49.7461 58.1905 54H56.2728C55.9784 54 55.5058 53.8125 55.1223 53.4844C54.7388 53.1562 54.5196 52.752 54.5196 52.5V24C54.5196 23.748 54.7388 23.3438 55.1223 23.0156C55.5058 22.6875 55.9784 22.5 56.2728 22.5H70.2988C71.7439 22.5 73.7574 23.8887 75.0107 25.2188L75.2298 25.5H66.7923C63.9844 25.5 61.5326 27.4395 61.5326 30V36C61.5326 37.248 62.1901 38.3438 63.1215 39.1406C64.0529 39.9375 65.3336 40.5 66.7923 40.5H84.3248V52.5C84.3248 52.752 84.1056 53.1562 83.7221 53.4844C83.3386 53.8125 82.866 54 82.5715 54H79.065V57H82.5715C84.0303 57 85.311 56.4375 86.2424 55.6406C87.1738 54.8438 87.8313 53.748 87.8313 52.5V38.1094C87.8313 36.4219 87.0779 34.875 86.4068 33.7031C85.7356 32.5312 85.037 31.6875 85.037 31.6875V31.6406L77.8597 23.3906H77.8049V23.3438C76.2503 21.6797 73.7574 19.5 70.2988 19.5H56.2728C55.6428 19.5 55.0675 19.5996 54.5196 19.7812V16.5C54.5196 14.0332 52.1431 12 49.2599 12H5.42869ZM5.42869 15H49.2599C50.2324 15 51.0131 15.668 51.0131 16.5V52.7812C51.0131 53.4785 50.4036 54 49.5886 54H33.3163C32.4807 49.7461 28.1593 46.5 22.9612 46.5C17.7631 46.5 13.4416 49.7461 12.606 54H5.42869C4.45618 54 3.67544 53.332 3.67544 52.5V16.5C3.67544 15.668 4.45618 15 5.42869 15ZM66.7923 28.5H77.8597L82.188 33.4219L82.2428 33.4688C82.2771 33.5098 82.7496 34.084 83.2838 35.0156C83.729 35.7891 83.9618 36.709 84.1056 37.5H66.7923C66.4978 37.5 66.0253 37.3125 65.6418 36.9844C65.2582 36.6562 65.0391 36.252 65.0391 36V30C65.0391 29.2617 66.0938 28.5 66.7923 28.5ZM8.93518 30V38.7188H11.2363V35.1094H15.4003V33.6094H11.2363V31.6406H15.9482V30H8.93518ZM17.7014 30V38.3906H19.619V35.1094H21.9202C23.4953 35.1094 23.4953 36.1523 23.6734 37.5C23.6734 37.7988 23.6597 38.0918 23.8378 38.3906H26.1389C25.7896 38.0918 25.7554 37.043 25.7554 36.8906C25.7554 34.793 24.7349 34.5 24.3857 34.5C24.913 34.3477 25.9198 33.7383 25.9198 32.3906C25.9198 30.4395 23.8378 30 22.9612 30H17.7014ZM28.2209 30V38.7188H35.7818V37.0312H30.3029V34.9688H35.2339V33.4688H30.3029V31.6406H35.5626V30H28.2209ZM38.1925 30V38.7188H45.7534V37.0312H40.3293V34.9688H45.2055V33.4688H40.3293V31.6406H45.589V30H38.1925ZM19.7834 31.5H22.2489C22.7762 31.5 23.8378 31.6699 23.8378 32.7188C23.8378 33.9199 22.7762 33.8906 22.2489 33.8906H19.7834V31.5ZM22.9612 49.5C26.858 49.5 29.9741 52.166 29.9741 55.5C29.9741 58.834 26.858 61.5 22.9612 61.5C19.0643 61.5 15.9482 58.834 15.9482 55.5C15.9482 52.166 19.0643 49.5 22.9612 49.5ZM68.5456 49.5C72.4424 49.5 75.5586 52.166 75.5586 55.5C75.5586 58.834 72.4424 61.5 68.5456 61.5C64.6487 61.5 61.5326 58.834 61.5326 55.5C61.5326 52.166 64.6487 49.5 68.5456 49.5Z" fill="#E87B16"/>
</g>
<defs>
<clipPath id="clip0_193_1060">
<rect width="87.6623" height="75" fill="white" transform="translate(0.168945)"/>
</clipPath>
</defs>
</svg>
