<svg width="35" height="36" viewBox="0 0 35 36" fill="none" xmlns="http://www.w3.org/2000/svg">
<path d="M11.2001 2.23196C6.1811 2.23196 2.1001 6.31296 2.1001 11.332V23.932C2.1001 28.951 6.1811 33.032 11.2001 33.032H23.8001C28.8191 33.032 32.9001 28.951 32.9001 23.932V11.332C32.9001 6.31296 28.8191 2.23196 23.8001 2.23196H11.2001ZM25.9001 7.83196C26.6701 7.83196 27.3001 8.46196 27.3001 9.23196C27.3001 10.002 26.6701 10.632 25.9001 10.632C25.1301 10.632 24.5001 10.002 24.5001 9.23196C24.5001 8.46196 25.1301 7.83196 25.9001 7.83196ZM17.5001 9.93196C21.7491 9.93196 25.2001 13.383 25.2001 17.632C25.2001 21.881 21.7491 25.332 17.5001 25.332C13.2511 25.332 9.8001 21.881 9.8001 17.632C9.8001 13.383 13.2511 9.93196 17.5001 9.93196ZM17.5001 11.332C14.0281 11.332 11.2001 14.16 11.2001 17.632C11.2001 21.104 14.0281 23.932 17.5001 23.932C20.9721 23.932 23.8001 21.104 23.8001 17.632C23.8001 14.16 20.9721 11.332 17.5001 11.332Z" fill="#F26C62"/>
</svg>
