<svg width="25" height="25" viewBox="0 0 25 25" fill="none" xmlns="http://www.w3.org/2000/svg">
<path d="M2.25 3.50001C2.15062 3.49861 2.05194 3.51697 1.95972 3.55403C1.86749 3.59109 1.78355 3.64611 1.71277 3.71589C1.642 3.78568 1.58579 3.86883 1.54743 3.96052C1.50907 4.05222 1.48932 4.15062 1.48932 4.25001C1.48932 4.34941 1.50907 4.44781 1.54743 4.5395C1.58579 4.6312 1.642 4.71435 1.71277 4.78413C1.78355 4.85392 1.86749 4.90894 1.95972 4.946C2.05194 4.98306 2.15062 5.00142 2.25 5.00001H3.62793C3.9919 5.00001 4.29529 5.25148 4.36426 5.60939L4.51367 6.39064L6.12598 14.8584C6.41754 16.3862 7.76357 17.5 9.31934 17.5H18.6807C20.2364 17.5 21.583 16.3866 21.874 14.8584L23.4863 6.39064C23.507 6.28222 23.5035 6.17057 23.4761 6.06366C23.4486 5.95675 23.398 5.85722 23.3276 5.77215C23.2573 5.68708 23.1691 5.61859 23.0692 5.57155C22.9694 5.52451 22.8604 5.50008 22.75 5.50001H5.87012L5.83789 5.32912C5.63633 4.27278 4.70349 3.50001 3.62793 3.50001H2.25ZM6.15625 7.00001H21.8438L20.4004 14.5781C20.2424 15.4079 19.5259 16 18.6807 16H9.31934C8.4744 16 7.75839 15.4079 7.59961 14.5781V14.5772L6.15625 7.00001ZM10.5 18.5C10.1022 18.5 9.72065 18.658 9.43934 18.9394C9.15804 19.2207 9 19.6022 9 20C9 20.3978 9.15804 20.7794 9.43934 21.0607C9.72065 21.342 10.1022 21.5 10.5 21.5C10.8978 21.5 11.2794 21.342 11.5607 21.0607C11.842 20.7794 12 20.3978 12 20C12 19.6022 11.842 19.2207 11.5607 18.9394C11.2794 18.658 10.8978 18.5 10.5 18.5ZM17.5 18.5C17.1022 18.5 16.7206 18.658 16.4393 18.9394C16.158 19.2207 16 19.6022 16 20C16 20.3978 16.158 20.7794 16.4393 21.0607C16.7206 21.342 17.1022 21.5 17.5 21.5C17.8978 21.5 18.2794 21.342 18.5607 21.0607C18.842 20.7794 19 20.3978 19 20C19 19.6022 18.842 19.2207 18.5607 18.9394C18.2794 18.658 17.8978 18.5 17.5 18.5Z" fill="#F8F8F8"/>
</svg>
