<svg width="76" height="75" viewBox="0 0 76 75" fill="none" xmlns="http://www.w3.org/2000/svg">
<g clip-path="url(#clip0_193_1066)">
<path d="M38.0001 4.5C28.9052 4.5 21.5001 11.9051 21.5001 21C21.5001 30.0949 28.9052 37.5 38.0001 37.5C47.095 37.5 54.5001 30.0949 54.5001 21C54.5001 11.9051 47.095 4.5 38.0001 4.5ZM38.0001 7.5C45.4737 7.5 51.5001 13.5264 51.5001 21C51.5001 28.4736 45.4737 34.5 38.0001 34.5C30.5265 34.5 24.5001 28.4736 24.5001 21C24.5001 13.5264 30.5265 7.5 38.0001 7.5ZM36.5001 10.5V13.1543C32.5281 13.8203 32.4015 17.3501 32.4015 17.7686C32.4015 21.4826 35.4078 22.1534 37.8243 22.6934C39.9933 23.1794 41.2198 23.5264 41.2198 24.9844C41.2198 25.8589 40.802 27.3281 38.003 27.3281C37.9415 27.3281 36.4863 27.3173 35.5743 26.4053C35.0358 25.8668 34.7754 25.0882 34.8009 24.0938L34.8038 24H32.0177L32.0206 24.0967C32.1106 27.2467 33.584 29.0466 36.503 29.6016V31.5H36.6466H39.3771H39.5001V29.6484C43.7691 28.9554 44.0001 25.6464 44.0001 24.9639C44.0016 21.3774 40.9952 20.6878 38.5802 20.1328C36.4112 19.6348 35.1847 19.2846 35.1847 17.9121C35.1847 16.2696 36.0926 15.5039 38.0441 15.5039C40.1681 15.5039 40.7273 16.8105 40.8038 18H43.587C43.5885 16.836 43.1158 15.5839 42.2833 14.6719C41.5543 13.8754 40.5967 13.3627 39.4972 13.1572V10.5H39.3771H36.6437H36.5001ZM20.6974 37.5C16.442 37.5 14.5096 38.5302 12.38 39.3721H12.3771C8.31685 40.981 1.34972 44.332 1.34972 44.332C1.17192 44.4174 1.01267 44.537 0.881085 44.6839C0.749498 44.8308 0.648144 45.0022 0.582814 45.1883C0.517483 45.3745 0.489456 45.5716 0.500332 45.7685C0.511208 45.9655 0.560775 46.1583 0.646201 46.3361C0.731628 46.5139 0.85124 46.6731 0.998207 46.8047C1.14517 46.9362 1.31661 47.0375 1.50274 47.1028C1.68886 47.1681 1.88602 47.196 2.08296 47.1851C2.2799 47.1742 2.47275 47.1245 2.6505 47.0391C2.6505 47.0391 9.66019 43.6757 13.4816 42.1611C15.822 41.236 16.8798 40.5 20.6974 40.5C29.1224 40.5 28.8945 44.2823 32.3458 46.3535H32.3487C33.5869 47.0961 35.5026 47.704 37.6925 48.2607C37.9189 48.3872 38.1743 48.4528 38.4337 48.4512H38.4366C40.8989 49.0468 43.5044 49.5 45.5001 49.5C47.2532 49.5 48.4918 49.8362 49.1505 50.25C49.8092 50.6638 50.0001 51.0052 50.0001 51.75C50.0001 52.6231 49.7992 52.9213 49.1417 53.3115C48.4843 53.7017 47.226 54 45.5001 54H36.7989C33.1259 54 27.9132 52.5586 27.9132 52.5586C27.7219 52.4973 27.5202 52.4751 27.3201 52.4932C27.12 52.5113 26.9256 52.5695 26.7484 52.6642C26.5712 52.7589 26.4148 52.8882 26.2886 53.0445C26.1623 53.2007 26.0687 53.3808 26.0134 53.5739C25.958 53.7671 25.942 53.9693 25.9664 54.1688C25.9907 54.3682 26.0548 54.5607 26.1549 54.7349C26.2551 54.9091 26.3892 55.0614 26.5493 55.1827C26.7094 55.3041 26.8923 55.3921 27.087 55.4414C27.087 55.4414 32.384 57 36.7989 57H45.5001C47.5303 57 49.2704 56.7256 50.6739 55.8926C51.0958 55.6422 51.4672 55.318 51.7902 54.9492C51.9029 54.9066 52.0101 54.8505 52.1095 54.7822L65.6007 45.709C67.9399 44.3212 69.553 43.927 70.5138 43.9453C71.4749 43.9636 71.8388 44.268 72.1456 44.6689C72.5904 45.2508 72.6253 45.5594 72.3361 46.2451C72.0468 46.9308 71.22 47.9203 69.7726 48.9463C67.9715 50.2242 48.1517 63.3894 45.8224 64.7373C44.0987 65.7363 42.709 66.7999 41.1202 67.251C39.532 67.7019 37.6533 67.6968 34.5812 66.2021H34.5782C32.5264 65.2026 23.8591 60.6761 21.046 59.2236C19.4915 58.4202 18.1809 57.9763 16.8419 58.0518C15.5029 58.1272 14.3689 58.7113 13.1769 59.4727C13.1729 59.4756 13.169 59.4785 13.1651 59.4814L9.11925 62.1211C8.95173 62.2275 8.80698 62.3661 8.6934 62.5288C8.57982 62.6916 8.49965 62.8752 8.45756 63.0692C8.41546 63.2631 8.41227 63.4635 8.44816 63.6587C8.48405 63.8539 8.55832 64.04 8.66665 64.2063C8.77499 64.3726 8.91524 64.5157 9.07929 64.6274C9.24334 64.7391 9.42791 64.8171 9.62233 64.857C9.81675 64.8968 10.0171 64.8977 10.2119 64.8596C10.4067 64.8214 10.5919 64.745 10.7569 64.6348L14.8058 61.9951C15.8393 61.3367 16.4507 61.0804 17.0118 61.0488C17.5767 61.017 18.3301 61.1976 19.6691 61.8896C22.4565 63.3289 31.0107 67.799 33.2657 68.8975C36.8082 70.6217 39.657 70.7851 41.9405 70.1367C44.224 69.4883 45.8525 68.1866 47.3253 67.333C50.45 65.5249 69.249 52.9947 71.507 51.3926V51.3955C73.2275 50.1759 74.4711 48.8989 75.0987 47.4111C75.7264 45.9233 75.5242 44.1504 74.5275 42.8467C73.7438 41.8226 72.3439 40.9791 70.5695 40.9453C69.3145 40.9214 67.8133 41.3957 66.1603 42.1377C66.0978 41.8377 66.2436 41.5065 66.1105 41.2178C65.6005 40.1115 64.464 39.3322 63.1866 39.0791H63.1837C61.508 38.7478 59.6103 39.264 57.7316 40.1279C57.5978 39.7207 57.4958 39.2938 57.2247 38.9707C56.4203 38.012 55.2632 37.6714 54.1866 37.5879C52.0335 37.421 49.7938 38.124 48.1749 39.0879C45.9281 40.425 39.214 44.6745 38.2374 45.293C36.2324 44.7526 34.4252 44.0994 33.8898 43.7783V43.7812C32.5171 42.9574 30.1554 37.5 20.6974 37.5ZM53.9552 40.5791C54.5547 40.6256 54.8414 40.7989 54.9249 40.8984C54.9885 40.9742 55.088 41.1155 55.0421 41.5576L47.6359 46.6641C46.9648 46.565 46.2638 46.5 45.5001 46.5C44.7063 46.5 43.62 46.3808 42.4357 46.1924C45.0455 44.5461 48.2802 42.5123 49.7071 41.6631C50.7133 41.064 52.7562 40.4862 53.9552 40.5791ZM61.6046 41.9971C62.0013 41.9604 62.3435 41.9691 62.6036 42.0205C63.2267 42.144 63.2868 42.2597 63.3859 42.4746C63.4594 42.6343 63.482 43.0361 63.4298 43.5527L52.8624 50.6602C52.6004 49.5784 51.9606 48.6125 51.0665 47.9414L57.257 43.6758C57.3102 43.64 57.3611 43.6009 57.4093 43.5586C58.8375 42.6015 60.4517 42.1035 61.6046 41.9971Z" fill="#06C825"/>
</g>
<defs>
<clipPath id="clip0_193_1066">
<rect width="75" height="75" fill="white" transform="translate(0.5)"/>
</clipPath>
</defs>
</svg>
