<svg width="76" height="75" viewBox="0 0 76 75" fill="none" xmlns="http://www.w3.org/2000/svg">
<path d="M12.3594 2.95306C12.2949 2.96478 12.2305 2.98236 12.1719 2.99994C11.4746 3.15814 10.9824 3.7851 11 4.49994V17.9999H24.5C25.0391 18.0058 25.543 17.7246 25.8184 17.2558C26.0879 16.7871 26.0879 16.2128 25.8184 15.7441C25.543 15.2753 25.0391 14.9941 24.5 14.9999H15.9688C21.6523 9.43939 29.416 5.99994 38 5.99994C55.4141 5.99994 69.5 20.0859 69.5 37.4999C69.5 54.914 55.4141 68.9999 38 68.9999C20.5859 68.9999 6.5 54.914 6.5 37.4999C6.5 32.291 7.7832 27.3867 10.0156 23.0624L7.34375 21.7031C4.89453 26.4374 3.5 31.8105 3.5 37.4999C3.5 56.537 18.9629 71.9999 38 71.9999C57.0371 71.9999 72.5 56.537 72.5 37.4999C72.5 18.4628 57.0371 2.99994 38 2.99994C28.6602 2.99994 20.2109 6.7558 14 12.7968V4.49994C14.0176 4.06635 13.8418 3.65033 13.5312 3.35736C13.2148 3.05853 12.7871 2.91205 12.3594 2.95306ZM38 7.49994C37.1738 7.49994 36.5 8.17377 36.5 8.99994C36.5 9.82611 37.1738 10.4999 38 10.4999C38.8262 10.4999 39.5 9.82611 39.5 8.99994C39.5 8.17377 38.8262 7.49994 38 7.49994ZM52.25 11.2968C51.4238 11.2968 50.75 11.9706 50.75 12.7968C50.75 13.623 51.4238 14.2968 52.25 14.2968C53.0762 14.2968 53.75 13.623 53.75 12.7968C53.75 11.9706 53.0762 11.2968 52.25 11.2968ZM62.7031 21.7499C61.877 21.7499 61.2031 22.4238 61.2031 23.2499C61.2031 24.0761 61.877 24.7499 62.7031 24.7499C63.5293 24.7499 64.2031 24.0761 64.2031 23.2499C64.2031 22.4238 63.5293 21.7499 62.7031 21.7499ZM28.0625 25.3593C23.9023 25.3593 20.9375 28.0722 20.9375 31.9687V32.0156H24.0312V31.9687C24.0312 29.7128 25.5898 28.2187 27.9219 28.2187C30.1016 28.2187 31.7656 29.6601 31.7656 31.5937C31.7656 33.1464 31.0801 34.2714 28.25 37.2187L21.125 44.6249V47.0156H35.375V44.0624H25.6719V43.8281L30.4062 39.0468C33.9512 35.4609 35 33.6445 35 31.4062C35 27.9199 32.0762 25.3593 28.0625 25.3593ZM47.8906 25.8749C44.123 31.5175 40.9707 36.4335 39.0781 39.8906V42.9374H49.3906V47.0156H52.5312V42.9374H55.4844V39.9843H52.5312V25.8749H47.8906ZM49.25 28.7812H49.4375V40.0781H42.2188V39.8437C44.709 35.5195 47.1582 31.8105 49.25 28.7812ZM9.5 35.9999C8.67383 35.9999 8 36.6738 8 37.4999C8 38.3261 8.67383 38.9999 9.5 38.9999C10.3262 38.9999 11 38.3261 11 37.4999C11 36.6738 10.3262 35.9999 9.5 35.9999ZM66.5 35.9999C65.6738 35.9999 65 36.6738 65 37.4999C65 38.3261 65.6738 38.9999 66.5 38.9999C67.3262 38.9999 68 38.3261 68 37.4999C68 36.6738 67.3262 35.9999 66.5 35.9999ZM13.2969 50.2499C12.4707 50.2499 11.7969 50.9238 11.7969 51.7499C11.7969 52.5761 12.4707 53.2499 13.2969 53.2499C14.123 53.2499 14.7969 52.5761 14.7969 51.7499C14.7969 50.9238 14.123 50.2499 13.2969 50.2499ZM62.7031 50.2499C61.877 50.2499 61.2031 50.9238 61.2031 51.7499C61.2031 52.5761 61.877 53.2499 62.7031 53.2499C63.5293 53.2499 64.2031 52.5761 64.2031 51.7499C64.2031 50.9238 63.5293 50.2499 62.7031 50.2499ZM23.75 60.7031C22.9238 60.7031 22.25 61.3769 22.25 62.2031C22.25 63.0292 22.9238 63.7031 23.75 63.7031C24.5762 63.7031 25.25 63.0292 25.25 62.2031C25.25 61.3769 24.5762 60.7031 23.75 60.7031ZM52.25 60.7031C51.4238 60.7031 50.75 61.3769 50.75 62.2031C50.75 63.0292 51.4238 63.7031 52.25 63.7031C53.0762 63.7031 53.75 63.0292 53.75 62.2031C53.75 61.3769 53.0762 60.7031 52.25 60.7031ZM38 64.4999C37.1738 64.4999 36.5 65.1738 36.5 65.9999C36.5 66.8261 37.1738 67.4999 38 67.4999C38.8262 67.4999 39.5 66.8261 39.5 65.9999C39.5 65.1738 38.8262 64.4999 38 64.4999Z" fill="#12AEE0"/>
</svg>
